<svg width="55" height="55" viewBox="0 0 55 55" fill="none" xmlns="http://www.w3.org/2000/svg">
<path d="M51.0714 35.3571H47.1429V39.2857H51.0714V51.0714H3.92857V39.2857H7.85714V35.3571H3.92857C2.88697 35.3582 1.88833 35.7724 1.1518 36.5089C0.415276 37.2455 0.00104004 38.2441 0 39.2857V51.0714C0.00104004 52.113 0.415276 53.1117 1.1518 53.8482C1.88833 54.5847 2.88697 54.999 3.92857 55H51.0714C52.113 54.999 53.1117 54.5847 53.8482 53.8482C54.5847 53.1117 54.999 52.113 55 51.0714V39.2857C54.999 38.2441 54.5847 37.2455 53.8482 36.5089C53.1117 35.7724 52.113 35.3582 51.0714 35.3571Z" fill="white"/>
<path d="M40.6745 10.397L30.853 0.575536C30.4847 0.207135 29.9852 0.000111252 29.4643 0H17.6786C16.637 0.00104004 15.6383 0.415276 14.9018 1.1518C14.1653 1.88833 13.751 2.88697 13.75 3.92857V35.3571C13.751 36.3987 14.1653 37.3974 14.9018 38.1339C15.6383 38.8704 16.637 39.2847 17.6786 39.2857H37.3214C38.363 39.2847 39.3617 38.8704 40.0982 38.1339C40.8347 37.3974 41.249 36.3987 41.25 35.3571V11.7857C41.2499 11.2648 41.0429 10.7653 40.6745 10.397ZM36.5082 11.7857H29.4643V4.74179L36.5082 11.7857ZM17.6786 35.3571V3.92857H25.5357V11.7857C25.5368 12.8273 25.951 13.826 26.6875 14.5625C27.424 15.299 28.4227 15.7132 29.4643 15.7143H37.3214V35.3571H17.6786Z" fill="white"/>
</svg>
