<svg width="62" height="61" viewBox="0 0 62 61" fill="none" xmlns="http://www.w3.org/2000/svg">
<g filter="url(#filter0_dd)">
<path d="M36.625 45H44.125V52.5H36.625V45Z" fill="white"/>
<path d="M49.75 45H57.25V52.5H49.75V45Z" fill="white"/>
<path d="M36.625 31.875H44.125V39.375H36.625V31.875Z" fill="white"/>
<path d="M49.75 31.875H57.25V39.375H49.75V31.875Z" fill="white"/>
<path d="M32.875 45H8.5V18.75H53.5V28.125H57.25V18.75C57.249 17.7557 56.8536 16.8025 56.1506 16.0994C55.4475 15.3964 54.4943 15.001 53.5 15H42.25V7.5C42.249 6.50574 41.8536 5.55249 41.1506 4.84945C40.4475 4.1464 39.4943 3.75099 38.5 3.75H23.5C22.5057 3.75099 21.5525 4.1464 20.8494 4.84945C20.1464 5.55249 19.751 6.50574 19.75 7.5V15H8.5C7.50574 15.001 6.55249 15.3964 5.84945 16.0994C5.1464 16.8025 4.75099 17.7557 4.75 18.75V45C4.75099 45.9943 5.1464 46.9475 5.84945 47.6506C6.55249 48.3536 7.50574 48.749 8.5 48.75H32.875V45ZM23.5 7.5H38.5V15H23.5V7.5Z" fill="white"/>
</g>
<defs>
<filter id="filter0_dd" x="-3" y="0" width="68" height="68" filterUnits="userSpaceOnUse" color-interpolation-filters="sRGB">
<feFlood flood-opacity="0" result="BackgroundImageFix"/>
<feColorMatrix in="SourceAlpha" type="matrix" values="0 0 0 0 0 0 0 0 0 0 0 0 0 0 0 0 0 0 127 0" result="hardAlpha"/>
<feOffset dy="4"/>
<feGaussianBlur stdDeviation="2"/>
<feComposite in2="hardAlpha" operator="out"/>
<feColorMatrix type="matrix" values="0 0 0 0 0 0 0 0 0 0 0 0 0 0 0 0 0 0 0.25 0"/>
<feBlend mode="normal" in2="BackgroundImageFix" result="effect1_dropShadow"/>
<feColorMatrix in="SourceAlpha" type="matrix" values="0 0 0 0 0 0 0 0 0 0 0 0 0 0 0 0 0 0 127 0" result="hardAlpha"/>
<feOffset dy="4"/>
<feGaussianBlur stdDeviation="2"/>
<feComposite in2="hardAlpha" operator="out"/>
<feColorMatrix type="matrix" values="0 0 0 0 0 0 0 0 0 0 0 0 0 0 0 0 0 0 0.25 0"/>
<feBlend mode="normal" in2="effect1_dropShadow" result="effect2_dropShadow"/>
<feBlend mode="normal" in="SourceGraphic" in2="effect2_dropShadow" result="shape"/>
</filter>
</defs>
</svg>
