<svg width="30" height="34" viewBox="0 0 32 37" fill="none" xmlns="http://www.w3.org/2000/svg">
<path d="M2.28571 33.1427C2.28571 34.052 2.64694 34.9241 3.28992 35.5671C3.9329 36.21 4.80497 36.5713 5.71429 36.5713H26.2857C27.195 36.5713 28.0671 36.21 28.7101 35.5671C29.3531 34.9241 29.7143 34.052 29.7143 33.1427V9.14269H2.28571V33.1427ZM21.7143 14.857C21.7143 14.5539 21.8347 14.2632 22.049 14.0489C22.2633 13.8345 22.554 13.7141 22.8571 13.7141C23.1602 13.7141 23.4509 13.8345 23.6653 14.0489C23.8796 14.2632 24 14.5539 24 14.857V30.857C24 31.1601 23.8796 31.4508 23.6653 31.6651C23.4509 31.8794 23.1602 31.9998 22.8571 31.9998C22.554 31.9998 22.2633 31.8794 22.049 31.6651C21.8347 31.4508 21.7143 31.1601 21.7143 30.857V14.857ZM14.8571 14.857C14.8571 14.5539 14.9776 14.2632 15.1919 14.0489C15.4062 13.8345 15.6969 13.7141 16 13.7141C16.3031 13.7141 16.5938 13.8345 16.8081 14.0489C17.0224 14.2632 17.1429 14.5539 17.1429 14.857V30.857C17.1429 31.1601 17.0224 31.4508 16.8081 31.6651C16.5938 31.8794 16.3031 31.9998 16 31.9998C15.6969 31.9998 15.4062 31.8794 15.1919 31.6651C14.9776 31.4508 14.8571 31.1601 14.8571 30.857V14.857ZM8 14.857C8 14.5539 8.12041 14.2632 8.33474 14.0489C8.54906 13.8345 8.83975 13.7141 9.14286 13.7141C9.44596 13.7141 9.73665 13.8345 9.95098 14.0489C10.1653 14.2632 10.2857 14.5539 10.2857 14.857V30.857C10.2857 31.1601 10.1653 31.4508 9.95098 31.6651C9.73665 31.8794 9.44596 31.9998 9.14286 31.9998C8.83975 31.9998 8.54906 31.8794 8.33474 31.6651C8.12041 31.4508 8 31.1601 8 30.857V14.857ZM30.8571 2.28554H22.2857L21.6143 0.949829C21.4721 0.664268 21.253 0.42406 20.9817 0.256228C20.7104 0.0883967 20.3976 -0.000399389 20.0786 -0.000170582H11.9143C11.596 -0.00139419 11.2838 0.0870709 11.0134 0.255089C10.7431 0.423107 10.5255 0.663883 10.3857 0.949829L9.71429 2.28554H1.14286C0.839753 2.28554 0.549062 2.40595 0.334735 2.62028C0.120408 2.83461 0 3.1253 0 3.4284L0 5.71412C0 6.01722 0.120408 6.30791 0.334735 6.52224C0.549062 6.73656 0.839753 6.85697 1.14286 6.85697H30.8571C31.1602 6.85697 31.4509 6.73656 31.6653 6.52224C31.8796 6.30791 32 6.01722 32 5.71412V3.4284C32 3.1253 31.8796 2.83461 31.6653 2.62028C31.4509 2.40595 31.1602 2.28554 30.8571 2.28554V2.28554Z" fill="#F81010"/>
</svg>
