<svg width="39" height="39" viewBox="0 0 39 39" fill="none" xmlns="http://www.w3.org/2000/svg">
<path d="M30.3056 21.8611V17.6389H9.19444V21.8611H30.3056ZM34.5278 0.75C35.6476 0.75 36.7215 1.19484 37.5133 1.98666C38.3052 2.77848 38.75 3.85242 38.75 4.97222V34.5278C38.75 35.6476 38.3052 36.7215 37.5133 37.5133C36.7215 38.3052 35.6476 38.75 34.5278 38.75H4.97222C3.85242 38.75 2.77848 38.3052 1.98666 37.5133C1.19484 36.7215 0.75 35.6476 0.75 34.5278V4.97222C0.75 2.62889 2.62889 0.75 4.97222 0.75H34.5278ZM19.75 9.19444C19.1901 9.19444 18.6531 9.41687 18.2572 9.81278C17.8613 10.2087 17.6389 10.7457 17.6389 11.3056C17.6389 11.8655 17.8613 12.4024 18.2572 12.7983C18.6531 13.1942 19.1901 13.4167 19.75 13.4167C20.3099 13.4167 20.8469 13.1942 21.2428 12.7983C21.6387 12.4024 21.8611 11.8655 21.8611 11.3056C21.8611 10.7457 21.6387 10.2087 21.2428 9.81278C20.8469 9.41687 20.3099 9.19444 19.75 9.19444ZM19.75 26.0833C19.1901 26.0833 18.6531 26.3058 18.2572 26.7017C17.8613 27.0976 17.6389 27.6345 17.6389 28.1944C17.6389 28.7543 17.8613 29.2913 18.2572 29.6872C18.6531 30.0831 19.1901 30.3056 19.75 30.3056C20.3099 30.3056 20.8469 30.0831 21.2428 29.6872C21.6387 29.2913 21.8611 28.7543 21.8611 28.1944C21.8611 27.6345 21.6387 27.0976 21.2428 26.7017C20.8469 26.3058 20.3099 26.0833 19.75 26.0833Z" fill="#EE2E24"/>
</svg>
