<svg width="30" height="30" viewBox="0 0 30 30" fill="none" xmlns="http://www.w3.org/2000/svg">
<path d="M17.121 15L21.3645 10.758C21.5039 10.6186 21.6144 10.4532 21.6898 10.2711C21.7653 10.089 21.8041 9.89384 21.8041 9.69675C21.8041 9.49966 21.7653 9.3045 21.6898 9.12241C21.6144 8.94032 21.5039 8.77487 21.3645 8.6355C21.2251 8.49613 21.0597 8.38558 20.8776 8.31016C20.6955 8.23474 20.5003 8.19592 20.3032 8.19592C20.1062 8.19592 19.911 8.23474 19.7289 8.31016C19.5468 8.38558 19.3814 8.49613 19.242 8.6355L15 12.879L10.758 8.6355C10.4765 8.35404 10.0948 8.19592 9.69675 8.19592C9.2987 8.19592 8.91696 8.35404 8.6355 8.6355C8.35404 8.91696 8.19592 9.29871 8.19592 9.69675C8.19592 9.89384 8.23474 10.089 8.31016 10.2711C8.38558 10.4532 8.49613 10.6186 8.6355 10.758L12.879 15L8.6355 19.242C8.35404 19.5235 8.19592 19.9052 8.19592 20.3032C8.19592 20.7013 8.35404 21.083 8.6355 21.3645C8.91696 21.646 9.2987 21.8041 9.69675 21.8041C10.0948 21.8041 10.4765 21.646 10.758 21.3645L15 17.121L19.242 21.3645C19.5235 21.646 19.9052 21.8041 20.3032 21.8041C20.7013 21.8041 21.083 21.646 21.3645 21.3645C21.646 21.083 21.8041 20.7013 21.8041 20.3032C21.8041 19.9052 21.646 19.5235 21.3645 19.242L17.121 15ZM6 0H24C25.5913 0 27.1174 0.632141 28.2426 1.75736C29.3679 2.88258 30 4.4087 30 6V24C30 25.5913 29.3679 27.1174 28.2426 28.2426C27.1174 29.3679 25.5913 30 24 30H6C4.4087 30 2.88258 29.3679 1.75736 28.2426C0.632141 27.1174 0 25.5913 0 24V6C0 4.4087 0.632141 2.88258 1.75736 1.75736C2.88258 0.632141 4.4087 0 6 0Z" fill="#F81010"/>
</svg>
