<svg width="38" height="38" viewBox="0 0 38 38" fill="none" xmlns="http://www.w3.org/2000/svg">
<path opacity="0.3" d="M30.527 13.6166L29.4186 11.7008L27.4078 12.5083L25.7295 13.1891L24.2886 12.0808C23.6711 11.6058 23.022 11.2258 22.3411 10.9566L20.6628 10.2758L20.4095 8.48665L20.1086 6.33331H17.892L17.5911 8.47081L17.3378 10.26L15.6595 10.9566C15.0103 11.2258 14.3611 11.6058 13.6803 12.1125L12.2553 13.1891L10.5928 12.5241L8.58197 11.7008L7.47363 13.6166L9.18363 14.9466L10.5928 16.055L10.3711 17.8441C10.3236 18.3191 10.292 18.6833 10.292 19C10.292 19.3166 10.3236 19.6808 10.3711 20.1558L10.5928 21.945L9.18363 23.0533L7.47363 24.3833L8.58197 26.2991L10.5928 25.4916L12.2711 24.8108L13.712 25.9191C14.3295 26.3941 14.9786 26.7741 15.6595 27.0433L17.3378 27.7241L17.5911 29.5133L17.892 31.6666H20.0928L20.3936 29.5291L20.647 27.74L22.3253 27.0591C22.9745 26.79 23.6236 26.41 24.3045 25.9033L25.7295 24.8266L27.3761 25.4916L29.387 26.2991L30.4953 24.3833L28.7853 23.0533L27.3761 21.945L27.5978 20.1558C27.6611 19.665 27.677 19.3325 27.677 19C27.677 18.6675 27.6453 18.3191 27.5978 17.8441L27.3761 16.055L28.7853 14.9466L30.527 13.6166V13.6166ZM19.0003 25.3333C15.5011 25.3333 12.667 22.4991 12.667 19C12.667 15.5008 15.5011 12.6666 19.0003 12.6666C22.4995 12.6666 25.3336 15.5008 25.3336 19C25.3336 22.4991 22.4995 25.3333 19.0003 25.3333Z" fill="#EE2E24"/>
<path d="M30.7639 22.5516C30.8272 22.045 30.8747 21.5383 30.8747 21C30.8747 20.4616 30.8272 19.955 30.7639 19.4483L34.1047 16.8358C34.4056 16.5983 34.4847 16.1708 34.2947 15.8225L31.1281 10.3441C31.0347 10.1808 30.8863 10.056 30.7093 9.99217C30.5323 9.92834 30.3384 9.92963 30.1622 9.99581L26.2197 11.5791C25.3964 10.9458 24.5097 10.4233 23.5439 10.0275L22.9422 5.83164C22.9161 5.64535 22.8228 5.47501 22.68 5.35258C22.5371 5.23015 22.3545 5.16404 22.1664 5.16664H15.8331C15.4372 5.16664 15.1047 5.45164 15.0572 5.83164L14.4556 10.0275C13.4897 10.4233 12.6031 10.9616 11.7797 11.5791L7.83725 9.99581C7.74544 9.96466 7.64919 9.94862 7.55225 9.9483C7.28308 9.9483 7.01391 10.0908 6.87141 10.3441L3.70475 15.8225C3.49891 16.1708 3.59391 16.5983 3.89475 16.8358L7.23558 19.4483C7.17225 19.955 7.12475 20.4775 7.12475 21C7.12475 21.5225 7.17225 22.045 7.23558 22.5516L3.89475 25.1641C3.59391 25.4016 3.51475 25.8291 3.70475 26.1775L6.87141 31.6558C6.96475 31.8192 7.11322 31.9439 7.2902 32.0078C7.46719 32.0716 7.66112 32.0703 7.83725 32.0041L11.7797 30.4208C12.6031 31.0541 13.4897 31.5766 14.4556 31.9725L15.0572 36.1683C15.1047 36.5483 15.4372 36.8333 15.8331 36.8333H22.1664C22.5622 36.8333 22.8947 36.5483 22.9422 36.1683L23.5439 31.9725C24.5097 31.5766 25.3964 31.0383 26.2197 30.4208L30.1622 32.0041C30.2572 32.0358 30.3522 32.0516 30.4472 32.0516C30.7164 32.0516 30.9856 31.9091 31.1281 31.6558L34.2947 26.1775C34.4847 25.8291 34.4056 25.4016 34.1047 25.1641L30.7639 22.5516V22.5516ZM27.6289 19.8441C27.6922 20.335 27.7081 20.6675 27.7081 21C27.7081 21.3325 27.6764 21.6808 27.6289 22.1558L27.4072 23.945L28.8164 25.0533L30.5264 26.3833L29.4181 28.2991L27.4072 27.4916L25.7606 26.8266L24.3356 27.9033C23.6547 28.41 23.0056 28.79 22.3564 29.0591L20.6781 29.74L20.4247 31.5291L20.1081 33.6666H17.8914L17.5906 31.5291L17.3372 29.74L15.6589 29.0591C14.9781 28.7741 14.3447 28.41 13.7114 27.935L12.2706 26.8266L10.5922 27.5075L8.58141 28.315L7.47308 26.3991L9.18308 25.0691L10.5922 23.9608L10.3706 22.1716C10.3231 21.6808 10.2914 21.3166 10.2914 21C10.2914 20.6833 10.3231 20.3191 10.3706 19.8441L10.5922 18.055L9.18308 16.9466L7.47308 15.6166L8.58141 13.7008L10.5922 14.5083L12.2389 15.1733L13.6639 14.0966C14.3447 13.59 14.9939 13.21 15.6431 12.9408L17.3214 12.26L17.5747 10.4708L17.8914 8.33331H20.0922L20.3931 10.4708L20.6464 12.26L22.3247 12.9408C23.0056 13.2258 23.6389 13.59 24.2722 14.065L25.7131 15.1733L27.3914 14.4925L29.4022 13.685L30.5106 15.6008L28.8164 16.9466L27.4072 18.055L27.6289 19.8441ZM18.9997 14.6666C15.5006 14.6666 12.6664 17.5008 12.6664 21C12.6664 24.4991 15.5006 27.3333 18.9997 27.3333C22.4989 27.3333 25.3331 24.4991 25.3331 21C25.3331 17.5008 22.4989 14.6666 18.9997 14.6666ZM18.9997 24.1666C17.2581 24.1666 15.8331 22.7416 15.8331 21C15.8331 19.2583 17.2581 17.8333 18.9997 17.8333C20.7414 17.8333 22.1664 19.2583 22.1664 21C22.1664 22.7416 20.7414 24.1666 18.9997 24.1666Z" fill="#EE2E24"/>
</svg>
