<svg width="46" height="35" viewBox="0 0 46 35" fill="none" xmlns="http://www.w3.org/2000/svg">
<path d="M35.3131 26.74L46 17.43L35.3131 8.19002V14.385H19.3215V20.545H35.3131V26.74ZM28.8855 8.82001L32.9899 5.07502C28.963 1.66835 24.6004 -0.034977 19.9024 -0.034977C14.3008 -0.034977 9.58333 1.63919 5.75 4.98752C1.91667 8.33585 0 12.5183 0 17.535C0 20.685 0.877666 23.6017 2.633 26.285C4.38833 28.9683 6.75673 31.0858 9.73822 32.6375C12.7197 34.1892 15.9529 34.965 19.4377 34.965C24.1874 34.965 28.6919 33.2383 32.9512 29.785L28.8855 26.075C25.9428 28.5017 22.8064 29.715 19.4764 29.715C15.6302 29.715 12.3841 28.5017 9.73822 26.075C7.09231 23.6483 5.76936 20.685 5.76936 17.185C5.76936 13.9183 7.13103 11.1067 9.85438 8.75002C12.5777 6.39335 15.7722 5.21502 19.4377 5.21502C22.8193 5.21502 25.9686 6.41669 28.8855 8.82001Z" fill="#EE2E24"/>
</svg>
