<svg width="30" height="30" viewBox="0 0 50 50" fill="none" xmlns="http://www.w3.org/2000/svg">
<g clip-path="url(#clip0_52:17)">
<rect width="50" height="50" fill="white"/>
<path d="M4.545 3.41C4.24418 3.41066 3.95587 3.53045 3.74316 3.74316C3.53045 3.95587 3.41066 4.24418 3.41 4.545V45.455C3.41 46.08 3.9175 46.59 4.545 46.59H45.455C45.7558 46.5893 46.0441 46.4695 46.2568 46.2568C46.4695 46.0441 46.5893 45.7558 46.59 45.455V4.545C46.5893 4.24418 46.4695 3.95587 46.2568 3.74316C46.0441 3.53045 45.7558 3.41066 45.455 3.41H4.545ZM45.455 0C47.965 0 50 2.035 50 4.545V45.455C50 46.0519 49.8824 46.6429 49.654 47.1943C49.4256 47.7457 49.0908 48.2468 48.6688 48.6688C48.2468 49.0908 47.7457 49.4256 47.1943 49.654C46.6429 49.8824 46.0519 50 45.455 50H4.545C3.94814 50 3.35713 49.8824 2.8057 49.654C2.25428 49.4256 1.75324 49.0908 1.3312 48.6688C0.909157 48.2468 0.574375 47.7457 0.345968 47.1943C0.11756 46.6429 0 46.0519 0 45.455L0 4.545C0 2.035 2.035 0 4.545 0H45.455ZM25.745 12.275C25.5211 12.275 25.2994 12.3191 25.0925 12.4048C24.8857 12.4905 24.6977 12.6161 24.5394 12.7744C24.3811 12.9327 24.2555 13.1207 24.1698 13.3275C24.0841 13.5344 24.04 13.7561 24.04 13.98L24.0375 23.25H14.7725C14.3643 23.2503 13.9697 23.397 13.6605 23.6636C13.3513 23.9301 13.148 24.2988 13.0875 24.7025L13.0675 24.9525C13.0675 25.8975 13.8325 26.66 14.7725 26.66L24.0375 26.6575V35.925C24.0375 36.7825 24.67 37.49 25.4925 37.6125L25.7425 37.63C26.1947 37.63 26.6284 37.4504 26.9481 37.1306C27.2679 36.8109 27.4475 36.3772 27.4475 35.925V26.6575H36.715C37.1233 26.6579 37.5182 26.5118 37.8279 26.2457C38.1375 25.9796 38.3414 25.6112 38.4025 25.2075L38.42 24.955C38.42 24.5028 38.2404 24.0691 37.9206 23.7494C37.6009 23.4296 37.1672 23.25 36.715 23.25H27.45V13.98C27.4498 13.5721 27.3034 13.1779 27.0374 12.8687C26.7713 12.5595 26.4033 12.356 26 12.295L25.745 12.275Z" fill="#095FD2"/>
</g>
<defs>
<clipPath id="clip0_52:17">
<rect width="50" height="50" fill="white"/>
</clipPath>
</defs>
</svg>
