<svg width="60" height="60" viewBox="0 0 60 60" fill="none" xmlns="http://www.w3.org/2000/svg">
<path d="M50 28.75V17.5L38.75 5H12.5C11.837 5 11.2011 5.26339 10.7322 5.73223C10.2634 6.20107 10 6.83696 10 7.5V52.5C10 53.163 10.2634 53.7989 10.7322 54.2678C11.2011 54.7366 11.837 55 12.5 55H27.5" stroke="white" stroke-width="4" stroke-linecap="round" stroke-linejoin="round"/>
<path d="M42.5 51.25C45.9518 51.25 48.75 48.4518 48.75 45C48.75 41.5482 45.9518 38.75 42.5 38.75C39.0482 38.75 36.25 41.5482 36.25 45C36.25 48.4518 39.0482 51.25 42.5 51.25Z" fill="#2F88FF" stroke="white" stroke-width="4"/>
<path d="M37.5 5V17.5H50M42.5 35V38.75V35ZM42.5 51.25V55V51.25ZM49.785 37.5L47.1338 40.1512L49.785 37.5ZM37.285 50L34.6338 52.6512L37.285 50ZM35 37.5L37.6513 40.1512L35 37.5ZM47.5 50L50.1512 52.6512L47.5 50ZM32.5 45H36.25H32.5ZM48.75 45H52.5H48.75Z" stroke="white" stroke-width="4" stroke-linecap="round" stroke-linejoin="round"/>
</svg>
