<svg width="55" height="55" viewBox="0 0 55 55" fill="none" xmlns="http://www.w3.org/2000/svg">
<path d="M33.6111 19.25V5.5H6.11111V49.5H24.6156C25.6309 50.663 26.8485 51.6705 28.2211 52.4837L32.4683 55H3.03417C2.22998 55 1.4587 54.7127 0.889767 54.2012C0.320838 53.6896 0.000809851 52.9958 0 52.272V2.728C0 1.25125 1.37194 0 3.06167 0H36.6575L55 16.5V19.25H33.6111ZM27.5 24.75H55V41.1097C55 43.8322 53.4692 46.3787 50.9178 47.8885L41.25 53.6195L31.5822 47.8885C30.3314 47.1518 29.3035 46.1469 28.5909 44.9642C27.8784 43.7814 27.5035 42.4579 27.5 41.1125V24.75ZM33.6111 41.1097C33.6111 41.9787 34.1061 42.7982 34.9433 43.296L41.25 47.036L47.5567 43.296C47.9628 43.0597 48.2972 42.7361 48.5298 42.3544C48.7624 41.9728 48.8858 41.545 48.8889 41.1097V30.25H33.6111V41.1097Z" fill="white"/>
</svg>
